<svg width="64" height="64" viewBox="0 0 64 64" fill="none" xmlns="http://www.w3.org/2000/svg">
<g id="Combined Shape Copy 2">
<mask id="path-1-inside-1_0_1844" fill="white">
<path fill-rule="evenodd" clip-rule="evenodd" d="M53.2407 1.14748C52.0691 -0.0240952 50.1696 -0.0240936 48.9981 1.14748L32.0001 18.1455L15.0021 1.14748C13.8305 -0.0240944 11.931 -0.0240934 10.7594 1.14748L1.14748 10.7594C-0.0240943 11.931 -0.0240924 13.8305 1.14748 15.0021L18.1455 32.0001L1.14748 48.9981C-0.0240949 50.1696 -0.0240939 52.0691 1.14748 53.2407L10.7594 62.8526C11.931 64.0242 13.8305 64.0242 15.0021 62.8526L32.0001 45.8546L48.9981 62.8526C50.1696 64.0242 52.0691 64.0242 53.2407 62.8526L62.8526 53.2407C64.0242 52.0691 64.0242 50.1696 62.8526 48.9981L45.8546 32.0001L62.8526 15.0021C64.0242 13.8305 64.0242 11.931 62.8526 10.7594L53.2407 1.14748Z"/>
</mask>
<path d="M48.9981 1.14748L47.5838 -0.266735L47.5838 -0.266734L48.9981 1.14748ZM53.2407 1.14748L51.8265 2.56169V2.56169L53.2407 1.14748ZM32.0001 18.1455L30.5858 19.5597L32.0001 20.9739L33.4143 19.5597L32.0001 18.1455ZM15.0021 1.14748L13.5878 2.56169L13.5878 2.56169L15.0021 1.14748ZM10.7594 1.14748L12.1736 2.56169H12.1736L10.7594 1.14748ZM1.14748 10.7594L2.56169 12.1736V12.1736L1.14748 10.7594ZM1.14748 15.0021L-0.266734 16.4163L-0.266733 16.4163L1.14748 15.0021ZM18.1455 32.0001L19.5597 33.4143L20.9739 32.0001L19.5597 30.5858L18.1455 32.0001ZM1.14748 48.9981L-0.266736 47.5838L-0.266736 47.5838L1.14748 48.9981ZM1.14748 53.2407L2.56169 51.8265H2.56169L1.14748 53.2407ZM10.7594 62.8526L9.3452 64.2668H9.3452L10.7594 62.8526ZM15.0021 62.8526L16.4163 64.2668H16.4163L15.0021 62.8526ZM32.0001 45.8546L33.4143 44.4404L32.0001 43.0262L30.5858 44.4404L32.0001 45.8546ZM48.9981 62.8526L50.4123 61.4384V61.4384L48.9981 62.8526ZM53.2407 62.8526L54.6549 64.2668H54.6549L53.2407 62.8526ZM62.8526 53.2407L61.4384 51.8265H61.4384L62.8526 53.2407ZM62.8526 48.9981L64.2668 47.5838V47.5838L62.8526 48.9981ZM45.8546 32.0001L44.4404 30.5858L43.0262 32.0001L44.4404 33.4143L45.8546 32.0001ZM62.8526 15.0021L61.4384 13.5878L61.4384 13.5878L62.8526 15.0021ZM62.8526 10.7594L64.2668 9.3452V9.3452L62.8526 10.7594ZM50.4123 2.56169C50.8028 2.17117 51.436 2.17117 51.8265 2.56169L54.6549 -0.266734C52.7023 -2.21936 49.5365 -2.21935 47.5838 -0.266735L50.4123 2.56169ZM33.4143 19.5597L50.4123 2.56169L47.5838 -0.266734L30.5858 16.7313L33.4143 19.5597ZM13.5878 2.56169L30.5858 19.5597L33.4143 16.7313L16.4163 -0.266735L13.5878 2.56169ZM12.1736 2.56169C12.5642 2.17117 13.1973 2.17117 13.5878 2.56169L16.4163 -0.266735C14.4636 -2.21936 11.2978 -2.21935 9.3452 -0.266734L12.1736 2.56169ZM2.56169 12.1736L12.1736 2.56169L9.3452 -0.266734L-0.266735 9.3452L2.56169 12.1736ZM2.56169 13.5878C2.17117 13.1973 2.17117 12.5642 2.56169 12.1736L-0.266735 9.3452C-2.21936 11.2978 -2.21935 14.4637 -0.266734 16.4163L2.56169 13.5878ZM19.5597 30.5858L2.56169 13.5878L-0.266733 16.4163L16.7313 33.4143L19.5597 30.5858ZM2.56169 50.4123L19.5597 33.4143L16.7313 30.5858L-0.266736 47.5838L2.56169 50.4123ZM2.56169 51.8265C2.17117 51.436 2.17117 50.8028 2.56169 50.4123L-0.266736 47.5838C-2.21936 49.5365 -2.21936 52.7023 -0.266733 54.6549L2.56169 51.8265ZM12.1736 61.4384L2.56169 51.8265L-0.266735 54.6549L9.3452 64.2668L12.1736 61.4384ZM13.5878 61.4384C13.1973 61.8289 12.5642 61.8289 12.1736 61.4384L9.3452 64.2668C11.2978 66.2195 14.4636 66.2195 16.4163 64.2668L13.5878 61.4384ZM30.5858 44.4404L13.5878 61.4384L16.4163 64.2668L33.4143 47.2689L30.5858 44.4404ZM50.4123 61.4384L33.4143 44.4404L30.5858 47.2689L47.5838 64.2668L50.4123 61.4384ZM51.8265 61.4384C51.436 61.8289 50.8028 61.8289 50.4123 61.4384L47.5838 64.2668C49.5365 66.2195 52.7023 66.2195 54.6549 64.2668L51.8265 61.4384ZM61.4384 51.8265L51.8265 61.4384L54.6549 64.2668L64.2668 54.6549L61.4384 51.8265ZM61.4384 50.4123C61.8289 50.8028 61.8289 51.436 61.4384 51.8265L64.2668 54.6549C66.2195 52.7023 66.2195 49.5365 64.2668 47.5838L61.4384 50.4123ZM44.4404 33.4143L61.4384 50.4123L64.2668 47.5838L47.2689 30.5858L44.4404 33.4143ZM61.4384 13.5878L44.4404 30.5858L47.2689 33.4143L64.2668 16.4163L61.4384 13.5878ZM61.4384 12.1736C61.8289 12.5642 61.8289 13.1973 61.4384 13.5878L64.2668 16.4163C66.2195 14.4636 66.2195 11.2978 64.2668 9.3452L61.4384 12.1736ZM51.8265 2.56169L61.4384 12.1736L64.2668 9.3452L54.6549 -0.266736L51.8265 2.56169Z" fill="#31C3BD" mask="url(#path-1-inside-1_0_1844)"/>
</g>
</svg>
