<svg width="20" height="20" viewBox="0 0 20 20" fill="none" xmlns="http://www.w3.org/2000/svg">
<path fill-rule="evenodd" clip-rule="evenodd" d="M18.5125 1.09882C17.3409 -0.0727495 15.4415 -0.0727515 14.2699 1.09882L10 5.3687L5.73012 1.09882C4.55855 -0.0727497 2.65906 -0.0727508 1.48749 1.09882L1.09882 1.48748C-0.0727492 2.65906 -0.0727511 4.55855 1.09882 5.73012L5.3687 10L1.09882 14.2699C-0.0727497 15.4414 -0.0727508 17.3409 1.09882 18.5125L1.48748 18.9012C2.65906 20.0728 4.55855 20.0728 5.73012 18.9012L10 14.6313L14.2699 18.9012C15.4414 20.0727 17.3409 20.0728 18.5125 18.9012L18.9012 18.5125C20.0728 17.3409 20.0728 15.4415 18.9012 14.2699L14.6313 10L18.9012 5.73012C20.0727 4.55855 20.0728 2.65906 18.9012 1.48749L18.5125 1.09882Z" fill="#A8BFC9"/>
</svg>
